{
  "accessors": [
    {
      "bufferView": 2,
      "componentType": 5126,
      "count": 448,
      "max": [
        19.400001525878906,
        0.0,
        43.814815521240234
      ],
      "min": [
        -19.799999237060547,
        -0.2222222238779068,
        -43.814815521240234
      ],
      "type": "VEC3"
    },
    {
      "bufferView": 2,
      "byteOffset": 5376,
      "componentType": 5126,
      "count": 448,
      "max": [
        0.14430442452430725,
        1.0,
        0.1204487532377243
      ],
      "min": [
        -0.1443043351173401,
        0.9839283227920532,
        -0.12044869363307953
      ],
      "type": "VEC3"
    },
    {
      "bufferView": 1,
      "componentType": 5126,
      "count": 448,
      "max": [
        0.6344000101089478,
        0.9495000243186951
      ],
      "min": [
        0.36560001969337463,
        0.040500007569789886
      ],
      "type": "VEC2"
    },
    {
      "bufferView": 1,
      "byteOffset": 3584,
      "componentType": 5126,
      "count": 448,
      "max": [
        0.0,
        0.0
      ],
      "min": [
        0.0,
        0.0
      ],
      "type": "VEC2"
    },
    {
      "bufferView": 0,
      "componentType": 5125,
      "count": 2430,
      "type": "SCALAR"
    },
    {
      "bufferView": 2,
      "byteOffset": 10752,
      "componentType": 5126,
      "count": 448,
      "max": [
        19.400001525878906,
        -1.7777776718139648,
        43.814815521240234
      ],
      "min": [
        -19.799999237060547,
        -2.0,
        -43.814815521240234
      ],
      "type": "VEC3"
    },
    {
      "bufferView": 2,
      "byteOffset": 16128,
      "componentType": 5126,
      "count": 448,
      "max": [
        0.1443043202161789,
        -0.9839283227920532,
        0.12044879794120789
      ],
      "min": [
        -0.144304558634758,
        -1.0,
        -0.12044869363307953
      ],
      "type": "VEC3"
    },
    {
      "bufferView": 1,
      "byteOffset": 7168,
      "componentType": 5126,
      "count": 448,
      "max": [
        0.8563500046730042,
        0.8730915784835815
      ],
      "min": [
        0.133650004863739,
        0.05690843611955643
      ],
      "type": "VEC2"
    },
    {
      "bufferView": 1,
      "byteOffset": 10752,
      "componentType": 5126,
      "count": 448,
      "max": [
        0.0,
        0.0
      ],
      "min": [
        0.0,
        0.0
      ],
      "type": "VEC2"
    },
    {
      "bufferView": 0,
      "byteOffset": 9720,
      "componentType": 5125,
      "count": 2430,
      "type": "SCALAR"
    },
    {
      "bufferView": 2,
      "byteOffset": 21504,
      "componentType": 5126,
      "count": 588,
      "max": [
        20.80000114440918,
        -0.166666641831398,
        45.5
      ],
      "min": [
        -21.200000762939453,
        -1.8333332538604736,
        -45.5
      ],
      "type": "VEC3"
    },
    {
      "bufferView": 2,
      "byteOffset": 28560,
      "componentType": 5126,
      "count": 588,
      "max": [
        1.0,
        0.9931722283363342,
        1.0
      ],
      "min": [
        -1.0,
        -0.9931722283363342,
        -1.0
      ],
      "type": "VEC3"
    },
    {
      "bufferView": 1,
      "byteOffset": 14336,
      "componentType": 5126,
      "count": 588,
      "max": [
        1.0,
        1.0
      ],
      "min": [
        0.0,
        0.0
      ],
      "type": "VEC2"
    },
    {
      "bufferView": 1,
      "byteOffset": 19040,
      "componentType": 5126,
      "count": 588,
      "max": [
        0.6344000101089478,
        0.9495000243186951
      ],
      "min": [
        0.0,
        0.0
      ],
      "type": "VEC2"
    },
    {
      "bufferView": 0,
      "byteOffset": 19440,
      "componentType": 5125,
      "count": 3024,
      "type": "SCALAR"
    }
  ],
  "asset": {
    "extras": {
      "author": "Levi (https://sketchfab.com/leviromano)",
      "license": "CC-BY-4.0 (http://creativecommons.org/licenses/by/4.0/)",
      "source": "https://sketchfab.com/3d-models/samsung-phone-030019d343df47e598e929a785d1e749",
      "title": "Samsung Phone"
    },
    "generator": "Sketchfab-12.66.0",
    "version": "2.0"
  },
  "bufferViews": [
    {
      "buffer": 0,
      "byteLength": 31536,
      "name": "floatBufferViews",
      "target": 34963
    },
    {
      "buffer": 0,
      "byteLength": 23744,
      "byteOffset": 31536,
      "byteStride": 8,
      "name": "floatBufferViews",
      "target": 34962
    },
    {
      "buffer": 0,
      "byteLength": 35616,
      "byteOffset": 55280,
      "byteStride": 12,
      "name": "floatBufferViews",
      "target": 34962
    }
  ],
  "buffers": [
    {
      "byteLength": 90896,
      "uri": "scene.bin"
    }
  ],
  "images": [
    {
      "uri": "textures/topface_baseColor.jpeg"
    },
    {
      "uri": "textures/lowerface_baseColor.jpeg"
    }
  ],
  "materials": [
    {
      "doubleSided": true,
      "name": "topface",
      "pbrMetallicRoughness": {
        "baseColorFactor": [
          0.78,
          0.78,
          0.78,
          1.0
        ],
        "baseColorTexture": {
          "index": 0
        },
        "metallicFactor": 0.0,
        "roughnessFactor": 0.6
      }
    },
    {
      "doubleSided": true,
      "name": "lowerface",
      "pbrMetallicRoughness": {
        "baseColorFactor": [
          0.78,
          0.78,
          0.78,
          1.0
        ],
        "baseColorTexture": {
          "index": 1
        },
        "metallicFactor": 0.0,
        "roughnessFactor": 0.6
      }
    },
    {
      "doubleSided": true,
      "name": "sides",
      "pbrMetallicRoughness": {
        "baseColorFactor": [
          0.0,
          0.0,
          0.0,
          1.0
        ],
        "metallicFactor": 0.0,
        "roughnessFactor": 0.6
      }
    }
  ],
  "meshes": [
    {
      "name": "3dphoneuvmap_topface_0",
      "primitives": [
        {
          "attributes": {
            "NORMAL": 1,
            "POSITION": 0,
            "TEXCOORD_0": 2,
            "TEXCOORD_1": 3
          },
          "indices": 4,
          "material": 0,
          "mode": 4
        }
      ]
    },
    {
      "name": "3dphoneuvmap_lowerface_0",
      "primitives": [
        {
          "attributes": {
            "NORMAL": 6,
            "POSITION": 5,
            "TEXCOORD_0": 7,
            "TEXCOORD_1": 8
          },
          "indices": 9,
          "material": 1,
          "mode": 4
        }
      ]
    },
    {
      "name": "3dphoneuvmap_sides_0",
      "primitives": [
        {
          "attributes": {
            "NORMAL": 11,
            "POSITION": 10,
            "TEXCOORD_0": 12,
            "TEXCOORD_1": 13
          },
          "indices": 14,
          "material": 2,
          "mode": 4
        }
      ]
    }
  ],
  "nodes": [
    {
      "children": [
        1
      ],
      "matrix": [
        1.0,
        0.0,
        0.0,
        0.0,
        0.0,
        2.220446049250313e-16,
        -1.0,
        0.0,
        0.0,
        1.0,
        2.220446049250313e-16,
        0.0,
        0.0,
        0.0,
        0.0,
        1.0
      ],
      "name": "Sketchfab_model"
    },
    {
      "children": [
        2
      ],
      "matrix": [
        1.0,
        0.0,
        0.0,
        0.0,
        0.0,
        0.0,
        1.0,
        0.0,
        0.0,
        -1.0,
        0.0,
        0.0,
        0.0,
        0.0,
        0.0,
        1.0
      ],
      "name": "samsung phone.fbx"
    },
    {
      "children": [
        3
      ],
      "name": "RootNode"
    },
    {
      "children": [
        4,
        5,
        6
      ],
      "matrix": [
        1.0,
        0.0,
        0.0,
        0.0,
        0.0,
        -4.371139072922858e-08,
        0.999999999999999,
        0.0,
        0.0,
        -0.999999999999999,
        -4.371139072922858e-08,
        0.0,
        0.0,
        0.0,
        0.0,
        1.0
      ],
      "name": "3dphoneuvmap"
    },
    {
      "mesh": 0,
      "name": "3dphoneuvmap_topface_0"
    },
    {
      "mesh": 1,
      "name": "3dphoneuvmap_lowerface_0"
    },
    {
      "mesh": 2,
      "name": "3dphoneuvmap_sides_0"
    }
  ],
  "samplers": [
    {
      "magFilter": 9729,
      "minFilter": 9987,
      "wrapS": 10497,
      "wrapT": 10497
    }
  ],
  "scene": 0,
  "scenes": [
    {
      "name": "Sketchfab_Scene",
      "nodes": [
        0
      ]
    }
  ],
  "textures": [
    {
      "sampler": 0,
      "source": 0
    },
    {
      "sampler": 0,
      "source": 1
    }
  ]
}
